<svg aria-hidden="true" style="position: absolute; width: 0; height: 0; overflow: hidden;" version="1.1" xmlns="http://www.w3.org/2000/svg" xmlns:xlink="http://www.w3.org/1999/xlink">
<defs>
<symbol id="icon-facebook" viewBox="0 0 32 32">
<path d="M32 16.098c0-8.892-7.164-16.1-16-16.1-8.84 0.002-16.004 7.208-16.004 16.102 0 8.034 5.852 14.694 13.5 15.902v-11.25h-4.060v-4.652h4.064v-3.55c0-4.034 2.39-6.262 6.044-6.262 1.752 0 3.582 0.314 3.582 0.314v3.96h-2.018c-1.986 0-2.606 1.242-2.606 2.516v3.020h4.436l-0.708 4.652h-3.73v11.25c7.648-1.208 13.5-7.868 13.5-15.902z"></path>
</symbol>
<symbol id="icon-instagram" viewBox="0 0 32 32">
<path d="M16 0c-4.342 0-4.888 0.020-6.594 0.096-1.706 0.080-2.868 0.348-3.886 0.744-1.11 0.423-2.055 1.051-2.833 1.845l-0.001 0.001c-0.795 0.779-1.423 1.724-1.828 2.781l-0.018 0.053c-0.396 1.016-0.666 2.18-0.744 3.88-0.076 1.71-0.096 2.254-0.096 6.602 0 4.344 0.020 4.888 0.096 6.594 0.080 1.704 0.348 2.866 0.744 3.884 0.41 1.052 0.956 1.944 1.846 2.834 0.888 0.89 1.78 1.438 2.832 1.846 1.020 0.396 2.18 0.666 3.884 0.744 1.708 0.076 2.252 0.096 6.598 0.096s4.888-0.020 6.596-0.096c1.702-0.080 2.868-0.348 3.886-0.744 1.109-0.423 2.054-1.051 2.831-1.845l0.001-0.001c0.89-0.89 1.436-1.782 1.846-2.834 0.394-1.018 0.664-2.18 0.744-3.884 0.076-1.706 0.096-2.25 0.096-6.596s-0.020-4.89-0.096-6.598c-0.080-1.702-0.35-2.866-0.744-3.882-0.423-1.11-1.051-2.055-1.845-2.833l-0.001-0.001c-0.779-0.795-1.724-1.423-2.781-1.828l-0.053-0.018c-1.020-0.396-2.184-0.666-3.886-0.744-1.708-0.076-2.25-0.096-6.598-0.096zM14.566 2.884h1.436c4.272 0 4.778 0.014 6.464 0.092 1.56 0.070 2.408 0.332 2.972 0.55 0.746 0.29 1.28 0.638 1.84 1.198s0.906 1.092 1.196 1.84c0.22 0.562 0.48 1.41 0.55 2.97 0.078 1.686 0.094 2.192 0.094 6.462s-0.016 4.778-0.094 6.464c-0.070 1.56-0.332 2.406-0.55 2.97-0.273 0.72-0.681 1.334-1.197 1.837l-0.001 0.001c-0.56 0.56-1.092 0.906-1.84 1.196-0.56 0.22-1.408 0.48-2.97 0.552-1.686 0.076-2.192 0.094-6.464 0.094s-4.78-0.018-6.466-0.094c-1.56-0.072-2.406-0.332-2.97-0.552-0.721-0.272-1.335-0.679-1.839-1.195l-0.001-0.001c-0.518-0.504-0.927-1.119-1.189-1.806l-0.011-0.034c-0.218-0.562-0.48-1.41-0.55-2.97-0.076-1.686-0.092-2.192-0.092-6.466s0.016-4.776 0.092-6.462c0.072-1.56 0.332-2.408 0.552-2.972 0.29-0.746 0.638-1.28 1.198-1.84s1.092-0.906 1.84-1.196c0.564-0.22 1.41-0.48 2.97-0.552 1.476-0.068 2.048-0.088 5.030-0.090zM24.542 5.54c-1.060 0-1.92 0.86-1.92 1.92s0.86 1.92 1.92 1.92v0c1.060 0 1.92-0.86 1.92-1.92s-0.86-1.92-1.92-1.92v0zM16.002 7.784c-0.038-0.001-0.083-0.001-0.128-0.001-4.539 0-8.218 3.679-8.218 8.218s3.679 8.218 8.218 8.218c0.045 0 0.090-0 0.135-0.001l-0.007 0c4.483-0.072 8.090-3.723 8.090-8.217s-3.607-8.145-8.083-8.217l-0.007-0zM16.002 10.666c2.946 0 5.334 2.388 5.334 5.334s-2.388 5.334-5.334 5.334v0c-2.946 0-5.334-2.388-5.334-5.334s2.388-5.334 5.334-5.334v0z"></path>
</symbol>
<symbol id="icon-twitter-x" viewBox="0 0 32 32">
<path d="M25.2 1.5h4.908l-10.72 12.284 12.612 16.716h-9.874l-7.734-10.14-8.85 10.14h-4.91l11.466-13.14-12.098-15.86h10.126l6.99 9.266 8.086-9.266zM23.48 27.556h2.72l-17.554-23.266h-2.916z"></path>
</symbol>
<symbol id="icon-youtube" viewBox="0 0 32 32">
<path d="M16.102 3.998h0.178c1.644 0.006 9.974 0.066 12.22 0.67 1.384 0.384 2.45 1.454 2.823 2.812l0.007 0.028c0.202 0.76 0.344 1.766 0.44 2.804l0.020 0.208 0.044 0.52 0.016 0.208c0.13 1.828 0.146 3.54 0.148 3.914v0.15c-0.002 0.388-0.020 2.216-0.164 4.12l-0.016 0.21-0.018 0.208c-0.1 1.144-0.248 2.28-0.47 3.116-0.38 1.386-1.446 2.456-2.802 2.833l-0.028 0.007c-2.32 0.624-11.138 0.668-12.36 0.67h-0.284c-0.618 0-3.174-0.012-5.854-0.104l-0.34-0.012-0.174-0.008-0.684-0.028c-2.22-0.098-4.334-0.256-5.308-0.52-1.383-0.384-2.45-1.453-2.823-2.81l-0.007-0.028c-0.222-0.834-0.37-1.972-0.47-3.116l-0.016-0.21-0.016-0.208c-0.094-1.198-0.153-2.617-0.164-4.047l-0-0.025v-0.246c0.004-0.43 0.020-1.916 0.128-3.556l0.014-0.206 0.006-0.104 0.016-0.208 0.044-0.52 0.020-0.208c0.096-1.038 0.238-2.046 0.44-2.804 0.38-1.386 1.446-2.456 2.802-2.833l0.028-0.007c0.974-0.26 3.088-0.42 5.308-0.52l0.34-0.014 0.516-0.018 0.342-0.014c1.666-0.058 3.666-0.095 5.673-0.102l0.039-0zM12.8 10.418v9.636l8.314-4.816z"></path>
</symbol>
</defs>
<symbol id="icon-home3" viewBox="0 0 32 32">
<path d="M32 19l-6-6v-9h-4v5l-6-6-16 16v1h4v10h10v-6h4v6h10v-10h4z"></path>
</symbol>
</svg>
